<svg id="_Layer_" data-name="&lt;Layer&gt;" xmlns="http://www.w3.org/2000/svg" viewBox="0 0 1654.59 943.64"><defs><style>.cls-1{fill:#b8c1c9;}.cls-2{fill:#657285;}.cls-3{fill:#d5d6da;}.cls-4{fill:#131f2d;}.cls-5{fill:#016eb9;}.cls-6{fill:#00a3fe;}.cls-7{fill:#ff7955;}.cls-8{fill:#020202;}.cls-9{fill:#eaeaea;}.cls-10{fill:#f89b60;}.cls-11{fill:#080435;}.cls-12{fill:#fff;}.cls-13{fill:#e9845c;}.cls-14{fill:#364154;}</style></defs><title>Fireman</title><rect class="cls-1" x="3038.76" y="484.95" width="32.41" height="795.82" transform="translate(4548.7 1280.77) rotate(180)"/><rect class="cls-1" x="2836.09" y="484.95" width="32.41" height="795.82" transform="translate(4143.38 1280.77) rotate(180)"/><polygon class="cls-1" points="1291.08 185.18 1503.79 81.55 1503.79 63.53 1291.08 167.15 1291.08 185.18"/><polygon class="cls-1" points="1291.08 373.55 1503.79 269.92 1503.79 251.9 1291.08 355.53 1291.08 373.55"/><polygon class="cls-1" points="1291.08 520.08 1503.79 416.45 1503.79 398.43 1291.08 502.05 1291.08 520.08"/><polygon class="cls-1" points="1291.08 685.92 1503.79 582.3 1503.79 564.28 1291.08 667.9 1291.08 685.92"/><rect class="cls-1" x="1993.92" y="484.95" width="25.15" height="795.82" transform="translate(2451.76 1280.77) rotate(180)"/><rect class="cls-1" x="1836.65" y="484.95" width="25.15" height="795.82" transform="translate(2137.23 1280.77) rotate(180)"/><polygon class="cls-1" points="288 185.18 453.06 81.55 453.06 63.53 288 167.15 288 185.18"/><polygon class="cls-1" points="288 373.55 453.06 269.92 453.06 251.9 288 355.53 288 373.55"/><polygon class="cls-1" points="288 520.08 453.06 416.45 453.06 398.43 288 502.05 288 520.08"/><polygon class="cls-1" points="288 685.92 453.06 582.3 453.06 564.28 288 667.9 288 685.92"/><polygon class="cls-1" points="586.43 736.79 994.33 736.79 1010.51 245.24 581.18 240.19 586.43 736.79"/><rect class="cls-2" x="581.71" y="288.6" width="427.33" height="2.92"/><rect class="cls-2" x="582.44" y="358.04" width="424.31" height="2.92"/><rect class="cls-2" x="583.22" y="431.81" width="421.81" height="2.92"/><rect class="cls-2" x="584.02" y="507.77" width="418.46" height="2.92"/><rect class="cls-2" x="584.78" y="578.92" width="414.7" height="2.92"/><rect class="cls-2" x="585.53" y="650.07" width="411.61" height="2.92"/><ellipse class="cls-3" cx="827.3" cy="834.74" rx="827.3" ry="108.91"/><path class="cls-4" d="M2942.75,1240.53s2.05,10.35-4,14.75-24.86,11.34-16.14,16.34c5,2.87,24.06-3.95,29.59-5.18s11.29.11,14.55-4.66c3.57-5.25-5.66-25.34-5.66-25.34s-16.34-52.42-20.66-51.58C2934.2,1186.07,2942.75,1240.53,2942.75,1240.53Z" transform="translate(-1561.23 -484.95)"/><path class="cls-4" d="M3138.32,1178.37s9.56,3.35,10.18,10.76-3,27.11,5.45,22c4.87-2.9,8.73-22.76,10.47-28.15s5.73-9.7,3.41-14.88c-2.55-5.69-23.74-7.66-23.74-7.66s-51.43-11.82-52.89-7.66C3089.1,1158.8,3138.32,1178.37,3138.32,1178.37Z" transform="translate(-1561.23 -484.95)"/><path class="cls-5" d="M2961.32,1000.13c.15.74.35,1.47.58,2.22s2.67,15.33,8.22,37.11c1.55,6.07,3.34,12.71,5.39,19.78,12.37,42.67,35.59,66.78,53.13,85.22.7.72,1.38,1.45,2.06,2.16a120.19,120.19,0,0,0,10.08,9.41c4.28,3.6,9,7.15,13.92,10.59,4.7,3.27,9.61,6.43,14.6,9.43a292.87,292.87,0,0,0,26.15,14,22.87,22.87,0,0,0,29.82-9.9l7.19-13.4a16.38,16.38,0,0,0-4.88-21.06c-5.23-3.74-11.07-8.14-17-12.87-4.54-3.61-9.15-7.41-13.63-11.27s-9-7.93-13-11.85c-3.6-3.48-6.91-6.89-9.76-10.14-.84-1-1.65-2-2.45-3-17.42-22.58-24.61-63-32.36-96.48-1.33-5.73-2.66-11.26-4.06-16.46-.7-2.54-1.4-5-2.13-7.39-1.68-5.47-6.92-8.86-13.69-10.74h0c-7.3-2-16.32-2.33-24.46-1.57-2.08.19-4.11.45-6,.77h0a63.14,63.14,0,0,0-7.91,1.8,28.73,28.73,0,0,0-19.64,33.65Z" transform="translate(-1561.23 -484.95)"/><path class="cls-5" d="M2898.4,1066.5c1.7,37.26,4.31,64.22,8.8,90.86.93,5.6,2,11.19,3.07,16.85s2.32,11.38,3.62,17.28c1.21,5.45,2.5,11,3.88,16.86q1.17,4.88,2.41,10c2.65,10.84,9.05,20.17,19.84,21.9l5.79.93c11.66,1.88,22.37-7.05,23-19.11,0,0-1.16-6.41-2.62-17.23-.67-5-1.41-10.91-2.11-17.58-.57-5.37-1.12-11.24-1.61-17.47-.43-5.63-.82-11.56-1.13-17.74-1.71-34.66-.75-76.65,8.83-112.54a172.79,172.79,0,0,1,8.55-24.78c1.8-4.11,3.43-8,4.9-11.73,3-7.63,5.37-14.45,7.16-20.53a134.15,134.15,0,0,0,4.07-17.53c0-.33.1-.66.14-1,3.84-26.8-8.32-28.31-11.79-17.33l-70.35-22.53s-4.23,12.28-8.19,34.84c-.88,5-1.75,10.47-2.55,16.45-.55,4.12-1.08,8.47-1.56,13A522.71,522.71,0,0,0,2898.4,1066.5Z" transform="translate(-1561.23 -484.95)"/><path class="cls-6" d="M2895.22,974.53q0,6.13.06,12.61s1.88.47,5.22,1.25c10.36,2.42,34.78,7.85,60.82,11.74,7.38,1.1,14.9,2.07,22.25,2.82,23,2.33,44.46,2.43,55.74-2.88,4.88-2.31,7.84-5.62,8.21-10.2,0,0,0-2.24,0-6.23,0-4.22-.11-10.41-.23-17.94-.38-22.3-1.26-56.44-3.36-86.94-.91-13.31-2.05-25.94-3.48-36.57-1.68-12.6-7.87-16-11.19-24.76,0,0-5.58-22.35-43.46-28.06h0a122.68,122.68,0,0,0-17.6-1.32,99.77,99.77,0,0,0-18.92,1.5c-26.47,4.93-38.78,21.82-43.52,48.68a619.83,619.83,0,0,0-9.17,80c-.62,11.81-1.05,24.89-1.23,39.59Q2895.22,965.86,2895.22,974.53Z" transform="translate(-1561.23 -484.95)"/><path class="cls-6" d="M3052.44,860.16l-36.24-20.33s-36.67-3.25-57.1-6.68-47.66-14.64-47.66-14.64,10.72-25.86,37.85-29.27c3.49-.44,7.08-1,10.82-1.21a151.32,151.32,0,0,1,18.71.42C3068.63,794.18,3052.44,860.16,3052.44,860.16Z" transform="translate(-1561.23 -484.95)"/><path class="cls-7" d="M2975.58,781.45l-4-13.13-1.17-3.82-6.9-22.47-1,22.33-.59,13.41-.18,4.24c-.13,2.88-1.36,4.9-3.5,7.39-.87,1-6.95,5.74-.67,8.53,7.82,3.49,22.48-1.72,28.07-8.57C2985.59,789.35,2976.88,785.69,2975.58,781.45Z" transform="translate(-1561.23 -484.95)"/><path class="cls-8" d="M2970.43,1042.17l.62-.05c-2.16-24.56-13.07-35-13.18-35.11l-.43.46a33.76,33.76,0,0,1,5.68,8.13C2965.84,1020.71,2969.31,1029.47,2970.43,1042.17Z" transform="translate(-1561.23 -484.95)"/><path class="cls-7" d="M2763.77,887.76a84.32,84.32,0,0,0,18.38,6.38s16.34-18.82,15.49-21.17c-1.95-5.42-8.23-15.24-10.29-20.62-.89-2.34-4.44-10-6.87-9.39-2.12.51-2.19,7.93-1.8,11.47-13.64-9.24-37.69-16.59-10.53,4.85l0,.05c-2.95-1.91-19.35-12.56-20.37-7.61-.9,4.37,10.52,12.48,15.34,15.68l-.08.15c-5.18-2.83-17.85-9.33-17.37-4.9.61,5.55,12.92,14.75,12.92,14.75s-16-11.4-16.07-4.9c0,4.43,14.36,11.65,19.25,14.4A9.54,9.54,0,0,0,2763.77,887.76Z" transform="translate(-1561.23 -484.95)"/><path class="cls-6" d="M2778.71,894.77s6.81,10.12,20.5,19.44a88.34,88.34,0,0,0,16.85,9c12.17,4.9,27.34,7.8,45.51,5.59a113.5,113.5,0,0,0,35-10.56,154.58,154.58,0,0,0,39.72-27.46l13-101.25.05-.31s-38.18,7.07-57.61,40.19-30.24,47.21-47.11,48.5c-6.32.47-13.63-.57-20.76-2.27a158.26,158.26,0,0,1-16.18-4.88c-9.55-3.43-16.5-6.77-16.5-6.77Z" transform="translate(-1561.23 -484.95)"/><path class="cls-9" d="M3028.64,1144.46c.7.72,1.38,1.45,2.06,2.16a120.19,120.19,0,0,0,10.08,9.41,288.11,288.11,0,0,0,43.1-46.36c-3.6-3.48-6.91-6.89-9.76-10.14-.84-1-1.65-2-2.45-3C3061.74,1110,3046.56,1128.57,3028.64,1144.46Z" transform="translate(-1561.23 -484.95)"/><path class="cls-9" d="M3054.7,1166.62c4.7,3.27,9.61,6.43,14.6,9.43a289.3,289.3,0,0,0,41.24-43.26c-4.54-3.61-9.15-7.41-13.63-11.27C3086.35,1135.17,3071.63,1152.29,3054.7,1166.62Z" transform="translate(-1561.23 -484.95)"/><path class="cls-9" d="M2907.2,1157.36c.93,5.6,2,11.19,3.07,16.85a286.37,286.37,0,0,0,52.15-4.47c-.43-5.63-.82-11.56-1.13-17.74A328.75,328.75,0,0,1,2907.2,1157.36Z" transform="translate(-1561.23 -484.95)"/><path class="cls-9" d="M2895.22,974.53l6.84.81c16.68,1.91,37.73,4,61.71,5.58,8.63.56,17.64,1.08,27,1.5,14.19.64,29.11,1.08,44.52,1.19,4,0,8.13,0,12.24,0,0-4.22-.11-10.41-.23-17.94-8.41,0-17.76-.05-27.82-.22h0c-7.81-.13-16-.32-24.6-.59l-5.9-.21h0c-26.32-.95-55.37-2.7-84.25-5.79-3.1-.33-6.2-.67-9.29-1Q2895.22,965.86,2895.22,974.53Z" transform="translate(-1561.23 -484.95)"/><path class="cls-9" d="M2913.89,1191.49c1.21,5.45,2.5,11,3.88,16.86a291.82,291.82,0,0,0,48.37-3.56c-.67-5-1.41-10.91-2.11-17.58A315.2,315.2,0,0,1,2913.89,1191.49Z" transform="translate(-1561.23 -484.95)"/><path class="cls-10" d="M2961.92,777.77s5.17,0,9-5.51l-9,.78Z" transform="translate(-1561.23 -484.95)"/><path class="cls-4" d="M2941.51,742s-5.49,19.08,6.75,19.3,24.37,10.51,24.37,10.51,7.7.68,11.36-6.46-2.33-28.39-2.33-28.39-23.86-7-24.17-6.79Z" transform="translate(-1561.23 -484.95)"/><path class="cls-4" d="M2945.6,733.55a29.54,29.54,0,0,0,0,12.25c1.4,6.82,8.37-9.92,8.37-9.92Z" transform="translate(-1561.23 -484.95)"/><ellipse class="cls-7" cx="2964.52" cy="750.41" rx="24.06" ry="19.96" transform="translate(265.96 3104.11) rotate(-82.37)"/><path class="cls-11" d="M2963.47,749.4a.42.42,0,0,1-.18-.31.4.4,0,0,1,.37-.44,4.38,4.38,0,0,1,4.65,2.67.4.4,0,0,1-.18.54.44.44,0,0,1-.54-.18,7,7,0,0,0-3.87-2.22A.42.42,0,0,1,2963.47,749.4Z" transform="translate(-1561.23 -484.95)"/><path class="cls-11" d="M2965.21,754.59c-.25.93-1,1.54-1.69,1.35a1.56,1.56,0,0,1-.75-2c.25-.93,1-1.54,1.68-1.35A1.56,1.56,0,0,1,2965.21,754.59Z" transform="translate(-1561.23 -484.95)"/><path class="cls-11" d="M2948.51,748.16a.31.31,0,0,1-.22-.2.49.49,0,0,1,.16-.55,2.84,2.84,0,0,1,4.12.48.46.46,0,0,1,0,.56.3.3,0,0,1-.45.06,4.25,4.25,0,0,0-3.42-.4A.26.26,0,0,1,2948.51,748.16Z" transform="translate(-1561.23 -484.95)"/><path class="cls-11" d="M2952.19,752.31c.11,1-.35,1.81-1.05,1.89s-1.35-.62-1.47-1.58.35-1.8,1-1.89S2952.07,751.36,2952.19,752.31Z" transform="translate(-1561.23 -484.95)"/><path class="cls-4" d="M2993.56,744.47s-2.66,16.75-12.12,17.78c0,0,7.18-12.67-7-18.53A25.87,25.87,0,0,1,2993.56,744.47Z" transform="translate(-1561.23 -484.95)"/><path class="cls-7" d="M2984.25,754.75a3.9,3.9,0,1,1,1.6-5.6A4.12,4.12,0,0,1,2984.25,754.75Z" transform="translate(-1561.23 -484.95)"/><path class="cls-12" d="M2956,765.38c0,1.14.65,2.06,1.46,2.06s1.47-.92,1.47-2.06-.66-2.06-1.47-2.06S2956,764.24,2956,765.38Z" transform="translate(-1561.23 -484.95)"/><path class="cls-6" d="M2997.29,744.33s-5.57-34.37-29.7-38.62-24.6,28-24.6,28-17.07,1.73-13.12,7.5S2997.29,744.33,2997.29,744.33Z" transform="translate(-1561.23 -484.95)"/><path class="cls-6" d="M2965.82,745s9.7-1.38,10.36,6.95,2.21,20.55,12.81,15.54,8.3-23.11,8.3-23.11Z" transform="translate(-1561.23 -484.95)"/><polygon class="cls-6" points="1622.76 515.01 1635.75 582.77 1583.03 599.61 1550.96 537.95 1622.76 515.01"/><path class="cls-4" d="M3111.94,1022.15c1.67,5.21,19.09,4.3,38.92-2s34.55-15.69,32.88-20.91-19.09-4.3-38.91,2S3110.28,1016.93,3111.94,1022.15Z" transform="translate(-1561.23 -484.95)"/><path class="cls-6" d="M3144.23,1084.36c1.22,3.83,14,3.16,28.63-1.5s25.42-11.55,24.2-15.38-14-3.17-28.64,1.49S3143,1080.52,3144.23,1084.36Z" transform="translate(-1561.23 -484.95)"/><path class="cls-4" d="M3111.94,1023.47l.26,0a1.35,1.35,0,0,0,1.05-1.56c-1.33-6.82,5.26-36.48,31.29-43.61,25.59-7,37.86,21.16,38,21.44a1.33,1.33,0,0,0,1.74.7,1.31,1.31,0,0,0,.7-1.73c-.13-.31-13.32-30.57-41.12-23-27.6,7.55-34.81,38.35-33.2,46.67A1.33,1.33,0,0,0,3111.94,1023.47Z" transform="translate(-1561.23 -484.95)"/><path class="cls-7" d="M3149.94,970.29a84.16,84.16,0,0,0-11.52-15.68s-24.13,6.24-24.76,8.66c-1.47,5.58-1.86,17.22-3.21,22.83-.59,2.43-2,10.73.34,11.63,2,.78,6.3-5.3,8-8.43,6,15.34,21.65,35,11.43,2l.05,0c1.35,3.25,6.58,11.57,10.22,8.06,3.22-3.09.66-6.49-1.5-11.86l.14-.08c2.67,5.27,7.5,8.51,9.61,4.58,2.64-4.92-.36-10.17-.36-10.17s4.48,7.23,6.47,4.58c2.66-3.55-1.23-9.17-3.7-14.21A9.08,9.08,0,0,0,3149.94,970.29Z" transform="translate(-1561.23 -484.95)"/><path class="cls-6" d="M3024.76,864.74c6.35,3.22,12.8,8.1,19.14,14,16.53,15.41,32.37,37.89,44.14,56.64,3.47,5.52,6.58,10.72,9.25,15.32,6.58,11.3,10.5,19,10.5,19,23,0,42.05-10.22,42.05-10.22q-3.48-11.65-7.38-22.26-3.12-8.54-6.49-16.43c-52.84-124.14-146.19-131.19-150.2-131.44h-.13S2985,844.58,3024.76,864.74Z" transform="translate(-1561.23 -484.95)"/><path class="cls-4" d="M2896.56,918.77a.51.51,0,0,0,.52-.49c.75-17.59,8.57-54.67,8.65-55a.52.52,0,1,0-1-.22c-.07.38-7.91,37.53-8.67,55.21a.52.52,0,0,0,.5.54Z" transform="translate(-1561.23 -484.95)"/><path class="cls-9" d="M3088,935.4c3.47,5.52,6.58,10.72,9.25,15.32a288.49,288.49,0,0,0,45.17-13.48q-3.12-8.54-6.49-16.43A325.07,325.07,0,0,1,3088,935.4Z" transform="translate(-1561.23 -484.95)"/><path class="cls-9" d="M2799.21,914.21a88.34,88.34,0,0,0,16.85,9,326,326,0,0,1,7.75-47.57,158.26,158.26,0,0,1-16.18-4.88A290.38,290.38,0,0,0,2799.21,914.21Z" transform="translate(-1561.23 -484.95)"/><path class="cls-6" d="M2988.58,789.36s-3.71-11.32-8.57-8.82-5.79,7.33-9.81,8.82-7.47,11.06-7.47,11.06,1-9.74-.81-11.06-.61-7.05-3.7-7.05-7.23,7.66-7.29,11.92,11.8,14.43,11.8,14.43,12.86-1.18,15.51-2.8S2988.58,789.36,2988.58,789.36Z" transform="translate(-1561.23 -484.95)"/><path class="cls-4" d="M2946.38,998l.74-.49c-13-19.57-4.24-38.91,2.81-54.45,4.47-9.85,8-17.63,4.37-22.53-8.69-11.71-5.64-29.71,8-47,9.51-12.08,4.54-26.87.54-38.75-1.81-5.37-3.37-10-3.41-13.64a54.08,54.08,0,0,1,3.74-20.57l-.81-.36a55.27,55.27,0,0,0-3.81,20.94c0,3.78,1.62,8.47,3.45,13.91,3.93,11.68,8.82,26.22-.39,37.93-13.87,17.6-16.93,36-8,48.05,3.33,4.48-.11,12.06-4.46,21.65C2942.36,957.63,2933.09,978,2946.38,998Z" transform="translate(-1561.23 -484.95)"/><rect class="cls-1" x="1723.01" y="484.95" width="1409.76" height="19.82" transform="translate(3294.56 504.78) rotate(180)"/><path class="cls-7" d="M1672.8,945.87s-25,4.92-24.94,18.32,14.2,25.17,14.2,25.17,8.38,1.22,15.54-3.4,15.12-21.08,15.12-21.08Z" transform="translate(-1561.23 -484.95)"/><path class="cls-6" d="M1813.27,958.71a254.61,254.61,0,0,1-67.69,18.11,216.66,216.66,0,0,1-22.9,1.54c-21.7.28-34.52-3-34.52-3-19.66-17.54-19.45-31.13-19.45-31.13s12.52-1.93,32.15-8.42c6.1-2,12.9-4.47,20.22-7.45a336.53,336.53,0,0,0,70-38.72c6.11-4.41,23.57-14,35.12-16.54C1850.05,867.86,1862.57,938.17,1813.27,958.71Z" transform="translate(-1561.23 -484.95)"/><path class="cls-9" d="M1745.58,976.82a216.66,216.66,0,0,1-22.9,1.54c-14.14-14-19.81-33.32-21.82-42.57,6.1-2,12.9-4.47,20.22-7.45C1723.57,947.71,1740.24,970.08,1745.58,976.82Z" transform="translate(-1561.23 -484.95)"/><path class="cls-4" d="M1819.31,1320.35s-.26,10.58-7.41,13.56-27.88,5.67-20.14,12.47c4.45,3.9,25.39,1.38,31.3,1.38s11.46,2.57,15.86-1.38c4.83-4.36,0-26,0-26s-5.1,2.66-9.69,2.54C1822.62,1322.72,1819.31,1320.35,1819.31,1320.35Z" transform="translate(-1561.23 -484.95)"/><path class="cls-5" d="M1790.81,1132.88c1.77,37.41,4.13,75.06,6.33,106.65.42,6,.83,11.79,1.23,17.31.44,6.17.88,12,1.28,17.47.48,6.27.92,12,1.33,17.19q.35,4.5.65,8.36a24.89,24.89,0,0,0,20.73,22.81l6,1c12.17,1.94,23.32-7.39,23.91-20l.44-9.48.81-17.59.8-17.44.82-17.73,5-108.83v0l2.09-45.14,4.54-71-20.13-6.41-53.28-17S1786.42,1040.2,1790.81,1132.88Z" transform="translate(-1561.23 -484.95)"/><path class="cls-4" d="M1915.4,1320.35s-.27,10.58-7.42,13.56-27.88,5.67-20.14,12.47c4.45,3.9,25.39,1.38,31.3,1.38s11.47,2.57,15.86-1.38c4.83-4.36,0-26,0-26s-5.1,2.66-9.69,2.54C1918.7,1322.72,1915.4,1320.35,1915.4,1320.35Z" transform="translate(-1561.23 -484.95)"/><path class="cls-5" d="M1846.71,1010c.19,12.35,1.75,53.9,13.5,122.59v0q1,6.11,2.19,12.49c6.34,35.14,13.25,70.42,19.35,100.52,1.2,5.89,2.35,11.59,3.48,17.05,1.24,6,2.43,11.81,3.56,17.22l3.55,16.92c1,4.57,1.86,8.73,2.65,12.43a24.88,24.88,0,0,0,23.53,19.9l6.12.16c12.3.32,22.14-10.38,21.07-22.93l-.75-12.67-1-17.61-1-17.43-1.05-17.75-10.36-175.5-9-45.76-75.84-13.57S1846.68,1007.36,1846.71,1010Z" transform="translate(-1561.23 -484.95)"/><path class="cls-4" d="M1937.13,1062.61c-.82,5.7-35.65,3.89-78.24-2.5s-76.06-16.32-75.24-22,35.62-5,78.21,1.39S1938,1056.91,1937.13,1062.61Z" transform="translate(-1561.23 -484.95)"/><path class="cls-6" d="M1783.66,1038.09s80.54-1.85,153.68,23.12c0,0,1.32-7.31,3.08-19,.84-5.57,1.8-12.14,2.74-19.39,5-37.55,10.17-93.34,2.62-123.28,0,0-4-30.86-59.76-37.75-69.54-8.59-79.88,46.23-94.81,133.34q-2,11.85-4.22,24.48Q1785.4,1028.67,1783.66,1038.09Z" transform="translate(-1561.23 -484.95)"/><path class="cls-6" d="M1968.27,905.09l-40.2,8.45s-80.62-2.18-101.38-8.17S1802,883.15,1802,883.15s25.31-20.67,64.38-22.38c3.67-.16,7.45-.15,11.36.05A128.1,128.1,0,0,1,1897,863.5C1943,873.09,1951.18,888.88,1968.27,905.09Z" transform="translate(-1561.23 -484.95)"/><path class="cls-7" d="M1894.5,855.85l-2.61-14.08-.76-4.1-4.45-24.11-3.69,23-2.2,13.82-.7,4.38c-.48,3-2.37,3.38-4.89,5.71-1,1-7.51,6.64-1.34,10.28,7.69,4.55,23.5.91,30.11-5.52C1903.93,865.24,1895.34,860.4,1894.5,855.85Z" transform="translate(-1561.23 -484.95)"/><path class="cls-5" d="M1789.84,1043.51s47.93-8.16,141.65,21.87l-.89,13.89-141.21-11.64Z" transform="translate(-1561.23 -484.95)"/><path class="cls-4" d="M1866.38,809.57a30.69,30.69,0,0,0-1.5,12.69c.63,7.23,9.86-9.27,9.86-9.27Z" transform="translate(-1561.23 -484.95)"/><ellipse class="cls-7" cx="1886.75" cy="822.37" rx="25.1" ry="20.81" transform="translate(-934.97 1964.46) rotate(-75.79)"/><path class="cls-11" d="M1885.78,821.2a.44.44,0,0,1-.15-.35.41.41,0,0,1,.43-.4,4.56,4.56,0,0,1,4.51,3.32.43.43,0,0,1-.26.54.48.48,0,0,1-.54-.26,7.17,7.17,0,0,0-3.74-2.76A.45.45,0,0,1,1885.78,821.2Z" transform="translate(-1561.23 -484.95)"/><path class="cls-11" d="M1887,826.79c-.38.93-1.24,1.46-1.91,1.19a1.63,1.63,0,0,1-.55-2.18c.38-.94,1.24-1.47,1.91-1.2A1.64,1.64,0,0,1,1887,826.79Z" transform="translate(-1561.23 -484.95)"/><path class="cls-11" d="M1870.43,818.12a.32.32,0,0,1-.2-.23.51.51,0,0,1,.23-.55,3,3,0,0,1,4.21,1,.5.5,0,0,1-.06.59.32.32,0,0,1-.47,0,4.41,4.41,0,0,0-3.5-.82A.31.31,0,0,1,1870.43,818.12Z" transform="translate(-1561.23 -484.95)"/><path class="cls-11" d="M1873.74,822.87c0,1-.58,1.82-1.31,1.83s-1.32-.81-1.33-1.81.58-1.83,1.31-1.84S1873.74,821.86,1873.74,822.87Z" transform="translate(-1561.23 -484.95)"/><path class="cls-4" d="M1915.6,836.72s-10.46,10.44-19.8,7.06c0,0,14.54-14.37,2.54-28.06C1898.34,815.72,1908.52,828,1915.6,836.72Z" transform="translate(-1561.23 -484.95)"/><path class="cls-7" d="M1906.67,829.23a4.07,4.07,0,1,1,2.33-5.61A4.3,4.3,0,0,1,1906.67,829.23Z" transform="translate(-1561.23 -484.95)"/><path class="cls-12" d="M1875.67,836.44c-.2,1.62.48,3,1.52,3.15s2-1.09,2.21-2.71-.49-3-1.52-3.14S1875.86,834.83,1875.67,836.44Z" transform="translate(-1561.23 -484.95)"/><path class="cls-4" d="M1860,1134l.92-.13c0-.16-2.25-16.37-4.9-30.67-2.68-14.49-20.2-25.66-21-26.13l-.49.78c.18.12,17.93,11.43,20.53,25.52C1857.74,1117.64,1860,1133.83,1860,1134Z" transform="translate(-1561.23 -484.95)"/><path class="cls-4" d="M1797,965c4.7-39.6,26.15-70,26.37-70.32l-.76-.54c-.21.31-21.8,30.92-26.53,70.75Z" transform="translate(-1561.23 -484.95)"/><path class="cls-9" d="M1787,1019.62c37.76-8,121.25,13.56,153.43,22.6.84-5.57,1.8-12.14,2.74-19.39-40.27-14.89-126-24.91-152-27.69Q1789.19,1007,1787,1019.62Z" transform="translate(-1561.23 -484.95)"/><path class="cls-6" d="M1911.18,868.79s-9.22-12.08-13-12.51-9.25,2.07-12.21,5.52-3.1,9.35-4.72,7.88,1.53-10.17,0-11.93-3.39-5.89-6.77-2.94-10.75,11-6.48,16.93,17.08,8,22.23,7.07S1911.18,868.79,1911.18,868.79Z" transform="translate(-1561.23 -484.95)"/><path class="cls-4" d="M1801,1000.15l2-6.4a8.7,8.7,0,0,0-5.77-10.86l-166.58-51.08a8.7,8.7,0,0,0-10.87,5.76l-2,6.41a8.69,8.69,0,0,0,5.77,10.86l166.58,51.08A8.68,8.68,0,0,0,1801,1000.15Z" transform="translate(-1561.23 -484.95)"/><path class="cls-7" d="M1653.59,984s5.67,9,13.81,3.72c10.37-6.67,13.9-22.84,7.27-18.71a44.51,44.51,0,0,0-10,8.8s13.61-14.84,8.48-17.22-16,10.07-16,10.07,14.26-16,8.7-16.69-18,10.22-18,10.22,16.11-14.42,9.63-15.05-12.79,6.58-16.63,10.72c-3.63,3.91-2.28,7.51,1.74,10.74,0,0,2.13,5.55,5.29,7,1.22.55,1.32,2.29,1.93,3A33.31,33.31,0,0,0,1653.59,984Z" transform="translate(-1561.23 -484.95)"/><path class="cls-13" d="M1667.4,988.07a.32.32,0,0,0,.19-.05c8.27-5.32,12.12-16.45,10.35-19.24-.38-.59-1.33-1.39-3.46-.07a40.65,40.65,0,0,0-4.7,3.48c2.66-3.56,5.32-7.86,4.84-10.28a2.2,2.2,0,0,0-1.3-1.64c-3-1.38-7.66,1.84-11.27,5,3-3.87,6.09-8.62,5.32-10.65a1.65,1.65,0,0,0-1.47-1c-3.23-.38-8.56,2.88-12.64,5.85,3.25-3.4,6.68-7.58,6-9.54a1.83,1.83,0,0,0-1.78-1.13c-6.34-.63-12.35,5.89-16.34,10.2l-.58.63a.35.35,0,0,0,.52.48l.58-.63c3.89-4.21,9.77-10.57,15.75-10,1,.1,1.13.51,1.17.65.82,2.5-7.66,10.8-11,13.79a.36.36,0,0,0,0,.5.35.35,0,0,0,.49,0c.13-.11,12.38-10.8,17.72-10.14.64.07.82.36.9.57,1,2.55-6.47,11.75-9.64,15.34l-.18.2a.36.36,0,0,0,0,.5.35.35,0,0,0,.49,0l.09-.1c1-1.13,10.92-12,15.51-9.89a1.53,1.53,0,0,1,.91,1.14c.65,3.26-5.4,10.77-8.16,14-.86.92-1.34,1.52-1.36,1.54a.37.37,0,0,0,0,.49.36.36,0,0,0,.49,0c.09-.1.64-.7,1.42-1.62a44.12,44.12,0,0,1,8.49-7.12c1.23-.76,2.06-.82,2.48-.15,1.48,2.34-2,13.06-10.13,18.26a.36.36,0,0,0-.1.49A.33.33,0,0,0,1667.4,988.07Z" transform="translate(-1561.23 -484.95)"/><path class="cls-14" d="M1619.34,960.36h0a9,9,0,0,0,10.88-6.49l4.73-18.66a9,9,0,0,0-6.49-10.88h0a9,9,0,0,0-10.87,6.49l-4.73,18.66A9,9,0,0,0,1619.34,960.36Z" transform="translate(-1561.23 -484.95)"/><path class="cls-4" d="M2054.08,1305.61a8.83,8.83,0,0,0,1.33-17.56c-71.54-11-103.5-96.76-126.84-159.4-8.86-23.79-16.51-44.32-25-57.09-36.77-55.52-95.35-84.14-97.83-85.34a8.83,8.83,0,0,0-7.66,15.92h0c.56.27,56.75,27.82,90.76,79.18,7.33,11.07,14.66,30.73,23.14,53.49,11.85,31.81,26.59,71.4,48,104,25.81,39.29,56.14,61.11,92.71,66.71A8.73,8.73,0,0,0,2054.08,1305.61Z" transform="translate(-1561.23 -484.95)"/><path class="cls-7" d="M1876.82,996.89s-38.09,1.27-45.31,7.45-11.73,19.65-6.43,16.79,11-8.43,11-8.43-11.69,12.46-7.58,14,14.18-9.41,14.18-9.41-12.73,16-8.39,16.15,13.92-12,13.92-12-11.25,15.34-6.21,15.43,9.21-12.73,13.33-11.2,24,5.63,32.65-10.74Z" transform="translate(-1561.23 -484.95)"/><path class="cls-13" d="M1836.4,1012.9s2.69-3.84,5.43-3.84h.05l0-.71h-.07c-3.12,0-5.89,4-6,4.15Z" transform="translate(-1561.23 -484.95)"/><path class="cls-13" d="M1843,1017.48s2.61-3.88,6.67-4.62l-.13-.7c-4.36.8-7,4.76-7.13,4.93Z" transform="translate(-1561.23 -484.95)"/><path class="cls-13" d="M1848.53,1021.62s3.22-4.64,6.15-4.33l.08-.7c-3.37-.35-6.67,4.43-6.81,4.63Z" transform="translate(-1561.23 -484.95)"/><path class="cls-6" d="M1887.6,1024.93c-7.92-1.66-24-41.35-13.37-61.85l17.4-4.78,10.12-2.78,17.14-4.71,23.65-69.94s45.26,27.66,54.9,92.2C2003.73,1015.16,1931.33,1034.11,1887.6,1024.93Z" transform="translate(-1561.23 -484.95)"/><path class="cls-4" d="M1906.23,1027.06q4.14,0,8.94-.23c14-.67,27.38-2.6,27.94-2.68l.25-.81-.38-.11c-18.4,2.67-54.55,5.68-59.65-2.06-6.68-10.17-10.84-28.09-11.21-30.3.7-.88,7.63-3.4,15-6.06,15.59-5.66,39.16-14.21,47.51-22.35l-.64-.66c-8.21,8-31.67,16.51-47.19,22.14-12.77,4.64-15.74,5.84-15.57,7,.46,3.07,4.87,20.87,11.37,30.75C1884.92,1025.25,1892.87,1027.06,1906.23,1027.06Z" transform="translate(-1561.23 -484.95)"/><path class="cls-4" d="M1927.56,967.23l.6-.7c-5.14-4.42-18.77-27.37-18.91-27.6l-.8.47C1909,940.35,1922.31,962.72,1927.56,967.23Z" transform="translate(-1561.23 -484.95)"/><path class="cls-4" d="M1835.66,995.11l.91-.16c0-.15-2.67-15.16,5.68-25.43,6.92-8.52,11.51-26.61,15.55-42.57,1-4.12,2-8,3-11.68,4.93-18,20.7-45.09,20.86-45.36l-.8-.47c-.16.28-16,27.46-21,45.58-1,3.68-2,7.58-3,11.7-4,15.87-8.58,33.86-15.38,42.22C1832.91,979.55,1835.63,995,1835.66,995.11Z" transform="translate(-1561.23 -484.95)"/><path class="cls-6" d="M1921.58,820.59s-1.33-34.8-24.76-42-27.84,24.8-27.84,24.8-17.15-.37-13.94,5.84S1921.58,820.59,1921.58,820.59Z" transform="translate(-1561.23 -484.95)"/><path class="cls-6" d="M1890.27,817.36s9.79-.18,9.43,8.16-.32,20.66,10.81,17,11.07-21.92,11.07-21.92Z" transform="translate(-1561.23 -484.95)"/><path class="cls-9" d="M1941.85,1240.88c-18.44,1.77-38.84,3.45-60.1,4.71,1.2,5.89,2.35,11.59,3.48,17.05,17.79-.88,37.19-2.16,57.67-4Z" transform="translate(-1561.23 -484.95)"/><path class="cls-9" d="M1888.79,1279.86l3.55,16.92c16.12-.66,33.83-1.65,52.62-3.11l-1-17.61C1926.57,1277.55,1907.93,1278.89,1888.79,1279.86Z" transform="translate(-1561.23 -484.95)"/><path class="cls-9" d="M1797.14,1239.53c.42,6,.83,11.79,1.23,17.31,17.26,1,36.09,1.88,56,2.3l.82-17.73C1837.25,1241.12,1817.57,1240.57,1797.14,1239.53Z" transform="translate(-1561.23 -484.95)"/><path class="cls-9" d="M1799.65,1274.31c.48,6.27.92,12,1.33,17.19,15.83,1.1,33.23,2,51.77,2.67l.81-17.59C1836.5,1276.15,1818.29,1275.43,1799.65,1274.31Z" transform="translate(-1561.23 -484.95)"/><path class="cls-14" d="M1797.39,1012.19h0a9,9,0,0,0,10.88-6.48l4.73-18.66a9,9,0,0,0-6.49-10.88h0a9,9,0,0,0-10.88,6.48l-4.72,18.67A9,9,0,0,0,1797.39,1012.19Z" transform="translate(-1561.23 -484.95)"/><path class="cls-1" d="M2311.85,705.54h63.66a20.68,20.68,0,0,0,20.62-20.62h0a20.68,20.68,0,0,0-20.62-20.62h-63.66a20.68,20.68,0,0,0-20.62,20.62h0A20.68,20.68,0,0,0,2311.85,705.54Z" transform="translate(-1561.23 -484.95)"/><path class="cls-4" d="M2116.77,1310.31c37.77,0,60.92-6.43,70.68-19.59,4.49-6,8.3-16.49,1-31.88a29.3,29.3,0,0,1-2.41-6.51c1.84-.16,5.74-.09,13.44,1.53,8.82,1.86,20.11,5.18,32.07,8.68,21.92,6.43,46.76,13.72,70.82,16.76,29.36,3.71,51.37.15,67.28-10.87,16.45-11.39,25.77-30.57,27.72-57a8.83,8.83,0,1,0-17.62-1.3c-1.56,21.14-8.15,35.46-20.16,43.78-28.17,19.52-83,3.43-123.06-8.32-34.41-10.09-55.18-16.18-64.71-5-7.47,8.77-1.33,21.63.68,25.85,4.31,9,1.76,12.46.81,13.76-3,4-15.22,13.36-63.5,12.37a479.07,479.07,0,0,1-54.37-4.52,8.83,8.83,0,1,0-2.65,17.46,487.06,487.06,0,0,0,56.66,4.72C2111.92,1310.28,2114.38,1310.31,2116.77,1310.31Z" transform="translate(-1561.23 -484.95)"/><path class="cls-7" d="M2513.07,1125.43s-21.29,14-16.21,26.37,22.62,18,22.62,18,8.23-2,13.13-9,6.07-25.22,6.07-25.22Z" transform="translate(-1561.23 -484.95)"/><path class="cls-6" d="M2648,1084.46a254,254,0,0,1-55.9,42.26,216.17,216.17,0,0,1-20.63,10c-20,8.43-33.13,10.2-33.13,10.2-24.81-8.85-29.73-21.53-29.73-21.53s10.88-6.5,26.63-19.9c4.89-4.16,10.26-9,15.92-14.5a336.73,336.73,0,0,0,50.27-62.21c4-6.39,16.56-21.86,26.31-28.55C2647.93,986.45,2686,1046.88,2648,1084.46Z" transform="translate(-1561.23 -484.95)"/><path class="cls-4" d="M2615.3,1326.26s-.3,12-8.32,15.41-31.24,6.45-22.56,14.19c5,4.43,28.45,1.57,35.07,1.57s12.85,2.93,17.78-1.57c5.41-5,0-29.6,0-29.6s-5.72,3-10.86,2.89C2619,1329,2615.3,1326.26,2615.3,1326.26Z" transform="translate(-1561.23 -484.95)"/><path class="cls-4" d="M2875.65,1315.79s11.85.27,15.21,8.39,6.45,31.69,14,22.86c4.36-5.06,1.47-28.88,1.45-35.6s2.85-13-1.6-18c-4.89-5.49-29.16.08-29.16.08s3,5.8,2.88,11C2878.29,1312,2875.65,1315.79,2875.65,1315.79Z" transform="translate(-1561.23 -484.95)"/><path class="cls-5" d="M2731.82,1171.44l-5.41-34.69c-.34.06-9.73,2.59-23.53,6.74-35,10.51-98.23,31.35-114.57,48.43-12.58,13.16-21.35,34.53-13.74,71.67,1.09,5.29,2.5,10.91,4.3,16.87.74,2.5,1.56,5.07,2.44,7.7l3.21,9.48c2,6,4,11.69,5.77,16.88l1.51,4.38a27.48,27.48,0,0,0,31.95,18.06l7.42-1.67A25.93,25.93,0,0,0,2651,1306.1a23.92,23.92,0,0,0-.58-2.87c-1.14-4.32-2.33-9-3.51-13.87q-.59-2.43-1.16-4.92c-1-4.37-1.83-8.44-2.58-12.2-.89-4.57-1.64-8.69-2.4-12.38a13.32,13.32,0,0,1-.12-4.82c2.22-13.61,26.59-21.9,50.29-28.78,23.5-6.83,46.35-12.27,46.35-20.13Z" transform="translate(-1561.23 -484.95)"/><path class="cls-5" d="M2885.4,1315.65l-2.22-14.66a17.61,17.61,0,0,0-15.22-14.92c-2.67-.31-5.67-.51-8.93-.61-5.28-.17-11.21-.09-17.46.11-5.76.19-11.8.48-17.81.78-5.84.29-11.66.59-17.2.81-17.83.72-32.75.62-36.09-3.22-5.12-5.9,8.64-49,16.35-102.94,5.66-39.62-12.63-60.81-18.21-68.27-18.63-25-52.35-1.55-65.73,30.76a77,77,0,0,0-4.72,16,576.31,576.31,0,0,0-7.27,66.73c-2.59,49.7.85,100.46,15.54,118.77,14.42,18,60.66,14.79,103.72,5.56,5.84-1.26,11.62-2.62,17.26-4.06,6.13-1.57,12.1-3.22,17.78-4.92,6.15-1.83,12-3.71,17.32-5.58,3.36-1.17,6.53-2.34,9.47-3.49C2879.93,1329.45,2886.69,1324.2,2885.4,1315.65Z" transform="translate(-1561.23 -484.95)"/><path class="cls-6" d="M2807.05,1175.44c-58.73,35-172.76-8.5-172.76-8.5q1.55-7.43,2.44-14.44a167.82,167.82,0,0,0,1.43-20.09c.38-35.72,2.59-52.55-11.44-73.12-8.07-11.84-23-28.7-13.2-40.26,6.31-7.47,11-18,25.75-25.09,49-23.7,80-10.69,80-10.69,47.13,21.94,70,95.26,80.25,144.72,1.5,7.24,2.74,14,3.74,19.93C2806.06,1164.57,2807.05,1175.44,2807.05,1175.44Z" transform="translate(-1561.23 -484.95)"/><path class="cls-6" d="M2737,1004.23l-38.75,5.16s-56.56,90.78-68.22,73.46c-13.68-20.31-40.37-59.48,2-85.34a106.68,106.68,0,0,1,17.14-8C2728.77,958.54,2737,1004.23,2737,1004.23Z" transform="translate(-1561.23 -484.95)"/><path class="cls-7" d="M2643.07,984.56l-9.54-10.31-2.77-3-16.32-17.64,9.11,21,5.48,12.63,1.73,4a12.29,12.29,0,0,1,.57,8.51c-.33,1.32-1.31,8.44,5.64,8.21,8.66-.29,17.25-12.3,19.25-21.11C2656.18,986.88,2647.12,989.54,2643.07,984.56Z" transform="translate(-1561.23 -484.95)"/><path class="cls-4" d="M2594.42,953.76a30.58,30.58,0,0,0,5.46,11.32c4.32,5.66,3.16-12.89,3.16-12.89Z" transform="translate(-1561.23 -484.95)"/><path class="cls-7" d="M2600,967.26c-4.29-12.94.79-26.29,11.36-29.82s22.62,4.09,26.91,17-.79,26.29-11.36,29.83S2604.3,980.2,2600,967.26Z" transform="translate(-1561.23 -484.95)"/><path class="cls-11" d="M2617.73,960.4a.37.37,0,0,1-.3-.2.41.41,0,0,1,.14-.57,4.38,4.38,0,0,1,5.41.38.41.41,0,0,1,.08.58.45.45,0,0,1-.57.08,6.9,6.9,0,0,0-4.5-.32A.47.47,0,0,1,2617.73,960.4Z" transform="translate(-1561.23 -484.95)"/><path class="cls-11" d="M2621.64,964.41c.18,1-.23,1.87-.93,2s-1.41-.55-1.59-1.52.23-1.87.92-2S2621.45,963.44,2621.64,964.41Z" transform="translate(-1561.23 -484.95)"/><path class="cls-11" d="M2603.6,965.94a.3.3,0,0,1-.29-.08.53.53,0,0,1-.1-.58,2.84,2.84,0,0,1,4-1.4.52.52,0,0,1,.26.52.3.3,0,0,1-.38.25,4.25,4.25,0,0,0-3.29,1.16A.25.25,0,0,1,2603.6,965.94Z" transform="translate(-1561.23 -484.95)"/><path class="cls-11" d="M2608.8,968.13a1.61,1.61,0,0,1-.11,2.21c-.59.39-1.5,0-2-.8a1.62,1.62,0,0,1,.11-2.21C2607.35,966.94,2608.26,967.3,2608.8,968.13Z" transform="translate(-1561.23 -484.95)"/><path class="cls-4" d="M2644.49,944.2s8.73,11.6-4.7,20c0,0,2.07-13.53-15.56-12.54C2624.23,951.69,2633.57,944.37,2644.49,944.2Z" transform="translate(-1561.23 -484.95)"/><path class="cls-7" d="M2639,956.05a4.13,4.13,0,0,1-5.64,1.69,4.28,4.28,0,0,1-1.06-5.88,4.14,4.14,0,0,1,5.64-1.69A4.29,4.29,0,0,1,2639,956.05Z" transform="translate(-1561.23 -484.95)"/><path class="cls-4" d="M2624.23,951.69s6.55,10.58,5.33,13.78-15.53,11.33-23.71,12h0a16,16,0,0,0,18.88,8.9,22.73,22.73,0,0,0,7-3.47h0c4.41-3.22,8.11-7.53,7.91-13-.06-1.68-5.92-9.33-5.92-9.33s-3.07-4.67-1.46-8.66C2632.29,951.86,2627.54,950.46,2624.23,951.69Z" transform="translate(-1561.23 -484.95)"/><path class="cls-12" d="M2611.42,979.71a40.77,40.77,0,0,0,12.28-4.84,6.41,6.41,0,0,1-4.91,8.16C2614.83,984.13,2611.42,979.71,2611.42,979.71Z" transform="translate(-1561.23 -484.95)"/><path class="cls-6" d="M2647.57,942.79s-18.37-29.59-42.27-24.24-11.94,35.33-11.94,35.33-15.09,8.16-9.23,12S2647.57,942.79,2647.57,942.79Z" transform="translate(-1561.23 -484.95)"/><path class="cls-6" d="M2620.26,954.83s6.3-2.42,9.66,2.66,5.33,13.86,15.49,11.35,8.6-17.68,2.16-26.05S2620.26,954.83,2620.26,954.83Z" transform="translate(-1561.23 -484.95)"/><path class="cls-4" d="M2690.78,1229.12a.52.52,0,0,0,.52-.51l.84-29.22v-.09c-.89-6.41-6.89-10-7.14-10.13a.52.52,0,1,0-.53.89c.06,0,5.79,3.47,6.63,9.34l-.84,29.18a.52.52,0,0,0,.5.54Z" transform="translate(-1561.23 -484.95)"/><path class="cls-9" d="M2827.41,1346.53c-5.64,1.44-11.42,2.8-17.26,4.06,3.28-24.7-.91-50.6-3.59-63.43,5.54-.22,11.36-.52,17.2-.81A172.87,172.87,0,0,1,2827.41,1346.53Z" transform="translate(-1561.23 -484.95)"/><path class="cls-9" d="M2862.51,1336c-5.34,1.87-11.17,3.75-17.32,5.58,2-21.63-1.14-43.47-3.62-56,6.25-.2,12.18-.28,17.46-.11A173,173,0,0,1,2862.51,1336Z" transform="translate(-1561.23 -484.95)"/><path class="cls-9" d="M2643.12,1272.24a173.86,173.86,0,0,1-64.25,8.22c-1.8-6-3.21-11.58-4.3-16.87,24.68,2.29,51.11-4,66-8.55Z" transform="translate(-1561.23 -484.95)"/><path class="cls-9" d="M2651,1306.1a174.63,174.63,0,0,1-60.66,8.42c-1.79-5.19-3.74-10.89-5.77-16.88,23.23,1.67,47.65-4,62.34-8.28,1.18,4.88,2.37,9.55,3.51,13.87A23.92,23.92,0,0,1,2651,1306.1Z" transform="translate(-1561.23 -484.95)"/><path class="cls-9" d="M2803.25,1147.9c-57.43,21.41-136.29,10.18-166.52,4.6a167.82,167.82,0,0,0,1.43-20.09c58.17,17.57,144-.47,161.35-4.44C2801,1135.21,2802.25,1141.93,2803.25,1147.9Z" transform="translate(-1561.23 -484.95)"/><path class="cls-7" d="M2708.68,1091.09s-38.11-.85-45.66,4.92-12.81,19-7.36,16.4,11.49-7.8,11.49-7.8-12.38,11.79-8.35,13.55,14.68-8.61,14.68-8.61-13.6,15.24-9.28,15.66,14.57-11.22,14.57-11.22-12.09,14.69-7.06,15.07,9.91-12.21,13.93-10.45,23.62,7,33.2-8.9Z" transform="translate(-1561.23 -484.95)"/><path class="cls-13" d="M2667.43,1104.82s2.92-3.72,5.68-3.53l.06-.7c-3.14-.25-6.17,3.64-6.3,3.8Z" transform="translate(-1561.23 -484.95)"/><path class="cls-13" d="M2673.77,1109.77s2.82-3.73,6.91-4.24l-.09-.71c-4.39.56-7.27,4.36-7.39,4.52Z" transform="translate(-1561.23 -484.95)"/><path class="cls-13" d="M2679.05,1114.21s3.47-4.45,6.38-4l.12-.7c-3.32-.54-6.91,4-7.06,4.25Z" transform="translate(-1561.23 -484.95)"/><path class="cls-6" d="M2769.14,1114.28a135.35,135.35,0,0,1-24.48,7,154.54,154.54,0,0,1-24.67,2.64s-22.91-9.83-25.26-32.79l11.93-13.54,6.94-7.87,11.75-13.33L2703.29,979s56.51,4.16,100,52.85C2831.58,1063.64,2810.75,1098,2769.14,1114.28Z" transform="translate(-1561.23 -484.95)"/><path class="cls-4" d="M2734.3,1058.61a.52.52,0,0,0,.13-1c-12.81-3.33-25.23-18.34-25.35-18.49a.51.51,0,0,0-.73-.08.52.52,0,0,0-.07.74,81.9,81.9,0,0,0,7.94,8.11c4.39,3.91,11.07,8.94,18,10.73Z" transform="translate(-1561.23 -484.95)"/><path class="cls-4" d="M2638.15,1094.32h0a.52.52,0,0,0,.51-.53c-.36-14.48-11.39-34.55-11.5-34.75a.52.52,0,1,0-.91.5c.11.2,11,20.06,11.37,34.27A.53.53,0,0,0,2638.15,1094.32Z" transform="translate(-1561.23 -484.95)"/><path class="cls-9" d="M2592.14,1126.72a216.17,216.17,0,0,1-20.63,10c-18.36-7.62-30.89-23.41-36.23-31.23,4.89-4.16,10.26-9,15.92-14.5C2560.79,1108,2584.66,1122.48,2592.14,1126.72Z" transform="translate(-1561.23 -484.95)"/><path class="cls-9" d="M2768.75,1113.39c-7.54,3-16,4.93-24.75,6.57-9.71-19.52-26.65-33.65-34.36-39.93l16.86-14.7C2752.81,1077,2764.12,1102.86,2768.75,1113.39Z" transform="translate(-1561.23 -484.95)"/><path class="cls-4" d="M2694.73,1091.61a.51.51,0,0,0,.31-.11c1.64-1.24,40.05-30.41,45.34-39.79a.52.52,0,1,0-.91-.51c-5.19,9.19-44.66,39.17-45,39.47a.52.52,0,0,0,.31.94Z" transform="translate(-1561.23 -484.95)"/><path class="cls-4" d="M2720,1124.39h.05c.47-.05,47.63-5,72-21.73a.52.52,0,0,0,.14-.72.53.53,0,0,0-.73-.14c-23.42,16.1-68.18,21.19-71.36,21.54l-9.42-5.87a.52.52,0,0,0-.72.16.53.53,0,0,0,.17.72l9.57,6A.55.55,0,0,0,2720,1124.39Z" transform="translate(-1561.23 -484.95)"/><path class="cls-4" d="M2677.16,1381c-7.49-2.54-11.51-6.2-11.93-10.9l0-.47c-.64-.24-1.25-.48-1.81-.74-5.63-2.53-6.76-5.87-6.71-8.22.12-5.49,6.38-8.69,11.83-10.87a99.68,99.68,0,0,1,18.45-5.13c.77-3.81,4.53-6.77,11.2-8.79,11.27-3.41,29.4-5.86,45.11-6.1q6.43-.09,11.78.27c12.89-26.22-14-87.86-42.31-152.71-4.57-10.47-9.29-21.31-13.92-32.14-10.86-25.41-21.4-39.16-31.32-40.84-11.41-2-24.07,11.88-37.46,26.52-8.92,9.75-18.15,19.84-28.64,27.48-27.08,19.75-54.63,18-95.07-6.09-9.65-5.75-13.49-5.23-14.92-4.41-4.35,2.48-4.28,16.13-4.23,27.11.08,17.93.18,38.25-13.79,45-19.26,9.28-91.82-4.9-100-6.54a4.42,4.42,0,0,1,1.74-8.66c21.51,4.31,80.4,14,94.45,7.25,8.95-4.32,8.87-21.68,8.8-37-.08-16-.14-29.78,8.67-34.82,5.67-3.24,13.24-1.82,23.82,4.49,37.38,22.25,61.31,24.08,85.36,6.55,9.77-7.13,18.69-16.88,27.32-26.31,15.07-16.47,29.3-32,45.47-29.27,13.44,2.29,25.5,16.93,38,46.08,4.62,10.8,9.34,21.62,13.9,32.08,16.84,38.58,32.74,75,40.8,104.54,4.41,16.15,8.66,37.17,2.59,52.82,8.14,1.51,13.37,4.24,15.63,8.17,3,5.26.33,10.67-3.37,14.94a18.75,18.75,0,0,1,4.9,4.66c3.07,4.45,2.56,9.47-1.41,13.79-3.52,3.83-14.38,10.57-47.43,12.59-5,.31-10,.46-14.84.46C2701.22,1385.81,2686.19,1384.1,2677.16,1381Zm40.12-7.32A205.45,205.45,0,0,1,2681,1373c1.44.45,3.16.9,5.19,1.33,28.33,6,78.94,1.61,87.34-7.53,1.47-1.6,1.08-2.15.64-2.79a13.12,13.12,0,0,0-4.57-3.57C2755.43,1369.87,2731.28,1372.81,2717.28,1373.71Zm23.47-21.13c-19,8.16-39.29,6.75-48.44,1.45a15.84,15.84,0,0,1-1.57-1q-4.08.67-7.83,1.58a4.5,4.5,0,0,1,1.59,1.65,4.43,4.43,0,0,1-1.72,6c-1.11.61-2.08,1.19-2.92,1.72,3.18.45,7,.83,11.46,1.08,22.75,1.32,51.13-1.45,67.46-8.78A128.4,128.4,0,0,0,2740.75,1352.58Zm-69,5.46a28.57,28.57,0,0,0-5.26,2.6,19.15,19.15,0,0,0,2.24.91,30.08,30.08,0,0,1,5.3-4.37C2673.28,1357.46,2672.52,1357.74,2671.78,1358Zm81.93-12.87-.76.55a96.68,96.68,0,0,1,15.35,4.4c3.32-3.23,4.37-5.53,3.9-6.35-.73-1.27-4.27-3.26-12.57-4.35A30,30,0,0,1,2753.71,1345.17Zm-10.31-6.52a194.39,194.39,0,0,0-34.42,3.66,189.85,189.85,0,0,1,25,.63c1.36.12,3.2.31,5.37.57a55.83,55.83,0,0,0,8.3-4.87C2746.32,1338.62,2744.89,1338.62,2743.4,1338.65Z" transform="translate(-1561.23 -484.95)"/><rect class="cls-14" x="784.47" y="665.34" width="73.3" height="189.85"/><path class="cls-14" d="M2437.09,1358.16H2328.77a1.17,1.17,0,0,1-1.17-1.17h0a16.85,16.85,0,0,1,16.85-16.85h74.62a18,18,0,0,1,18,18Z" transform="translate(-1561.23 -484.95)"/><path class="cls-14" d="M2423.37,1147h-82c0-23.78,18.37-43,41-43S2423.37,1123.18,2423.37,1147Z" transform="translate(-1561.23 -484.95)"/><rect class="cls-14" x="768.44" y="662" width="105.36" height="9.77" rx="4.49"/><path class="cls-14" d="M2382.35,1111.69h0a4.53,4.53,0,0,1-4.53-4.53v-15.8a4.52,4.52,0,0,1,4.53-4.53h0a4.53,4.53,0,0,1,4.53,4.53v15.8A4.53,4.53,0,0,1,2382.35,1111.69Z" transform="translate(-1561.23 -484.95)"/><rect class="cls-14" x="763.92" y="711.67" width="34.48" height="28.31"/><path class="cls-14" d="M2331.61,1184.24v53.09a26.55,26.55,0,1,1,0-53.09Z" transform="translate(-1561.23 -484.95)"/><rect class="cls-4" x="784.02" y="711.67" width="0.9" height="28.31"/><rect class="cls-4" x="769.93" y="711.67" width="0.9" height="28.31"/><rect class="cls-14" x="2417.42" y="1196.63" width="34.48" height="28.31" transform="translate(3308.08 1936.62) rotate(180)"/><path class="cls-14" d="M2445.44,1237.33v-53.09a26.55,26.55,0,1,1,0,53.09Z" transform="translate(-1561.23 -484.95)"/><rect class="cls-4" x="869.67" y="711.68" width="0.9" height="28.31"/><rect class="cls-4" x="883.76" y="711.68" width="0.9" height="28.31"/><rect class="cls-4" x="796.6" y="671.78" width="0.9" height="183.41"/><rect class="cls-4" x="845.27" y="671.78" width="0.9" height="183.41"/><rect class="cls-4" x="834.45" y="671.78" width="0.9" height="183.41"/><rect class="cls-4" x="809.24" y="671.78" width="0.9" height="183.41"/><rect class="cls-4" x="821.84" y="671.78" width="0.9" height="183.41"/><rect class="cls-4" x="783.23" y="854.74" width="74.62" height="0.9"/><rect class="cls-4" x="780.1" y="661.55" width="82.05" height="0.9"/><rect class="cls-4" x="784.47" y="671.32" width="73.3" height="0.9"/><rect class="cls-4" x="784.47" y="671.32" width="73.3" height="0.9"/><rect class="cls-4" x="780.1" y="661.55" width="82.05" height="0.9"/><path class="cls-7" d="M2509.62,1168s8.63,6.16,14.2-1.75c7.09-10.08,4.27-26.4-.31-20.07a44.6,44.6,0,0,0-5.93,11.91s7-18.87,1.38-19.15-11.05,15.36-11.05,15.36,7.18-20.21,1.77-18.74-12.82,16.25-12.82,16.25,9.5-19.43,3.25-17.58-9.37,10.91-11.37,16.19c-1.89,5,.71,7.82,5.66,9.3,0,0,4.06,4.34,7.53,4.49,1.33.06,2.08,1.63,2.92,2.06A33.6,33.6,0,0,0,2509.62,1168Z" transform="translate(-1561.23 -484.95)"/><path class="cls-13" d="M2523.82,1166.59a.35.35,0,0,0,.29-.15c5.66-8,5-19.79,2.34-21.71-.57-.42-1.75-.8-3.23,1.23a39.27,39.27,0,0,0-3,5c1.12-4.29,2-9.28.61-11.34a2.22,2.22,0,0,0-1.82-1c-3.28-.13-6.41,4.59-8.55,8.89,1.29-4.7,2.39-10.28.92-11.87a1.65,1.65,0,0,0-1.75-.39c-3.14.85-6.85,5.88-9.51,10.16,1.73-4.36,3.33-9.52,2-11.1a1.84,1.84,0,0,0-2.07-.39c-6.11,1.81-9.23,10.11-11.3,15.6l-.3.81a.35.35,0,0,0,.66.25l.31-.81c2-5.36,5.06-13.46,10.83-15.17.95-.28,1.24.06,1.33.17,1.7,2-3,12.89-5,16.91a.35.35,0,0,0,.16.47.34.34,0,0,0,.47-.16c.08-.14,7.41-14.65,12.6-16.06.63-.17.9,0,1.05.19,1.85,2-1.57,13.32-3.16,17.84a1.44,1.44,0,0,1-.09.25.36.36,0,0,0,.22.45.35.35,0,0,0,.45-.21l0-.12c.51-1.43,5.59-15.25,10.66-15a1.5,1.5,0,0,1,1.26.71c1.83,2.77-.95,12-2.29,16-.45,1.17-.67,1.9-.67,1.93a.34.34,0,0,0,.22.43.36.36,0,0,0,.45-.21c0-.13.32-.89.71-2a43.37,43.37,0,0,1,5.18-9.79c.85-1.17,1.6-1.54,2.24-1.08,2.25,1.61,3,12.87-2.51,20.73a.36.36,0,0,0,.08.5A.42.42,0,0,0,2523.82,1166.59Z" transform="translate(-1561.23 -484.95)"/><path class="cls-9" d="M2358.83,884.22s14.36-25.2,38.07-18.94c0,0-5.82-53.24,41.6-57.26s51,36.23,51,36.23,15.21-16.1,30.42-8.5,9.85,36-4.92,39.9c0,0,38,27.41,11.63,55.49,0,0,4.48,20-17.89,23.58s-37.58-17.08-37.58-17.08,6.71,28.88-34.44,27.91-47.87-23.77-47.87-23.77-30.29,2.61-33.93-17.49Z" transform="translate(-1561.23 -484.95)"/><path class="cls-6" d="M2175.06,872.36s46,106.21,73.85,119.9l9.92,37.54s-24.49,11-29.79,9.72c0,0-45.69-52.12-54-73.76S2175.06,872.36,2175.06,872.36Z" transform="translate(-1561.23 -484.95)"/><path class="cls-4" d="M2145.84,838.6s8-13,4.58-20.05-27.08-7.07-27.08-7.07l-6.77,13.35Z" transform="translate(-1561.23 -484.95)"/><path class="cls-4" d="M2251.67,1305.66s.23,10.94,7.62,14.06,28.82,6,20.78,13c-4.62,4-26.28,1.32-32.4,1.29s-11.87,2.62-16.4-1.5c-5-4.53.12-26.93.12-26.93s5.26,2.78,10,2.67C2248.25,1308.09,2251.67,1305.66,2251.67,1305.66Z" transform="translate(-1561.23 -484.95)"/><path class="cls-4" d="M2133.69,1312.4s.58,10.93,8.07,13.81,29,5.07,21.18,12.32c-4.48,4.16-26.22,2.16-32.33,2.33s-11.79,3-16.45-1c-5.12-4.37-.75-26.92-.75-26.92s5.36,2.6,10.1,2.34C2130.35,1315,2133.69,1312.4,2133.69,1312.4Z" transform="translate(-1561.23 -484.95)"/><path class="cls-5" d="M2251.42,1309.51l-5.42,2.25c-10.93,4.5-23.42-1.72-26.77-13.34,0,0-1-3.73-2.61-9.91-1.22-4.58-2.8-10.5-4.63-17.24-1.41-5.26-3-11-4.64-17-1.54-5.63-3.17-11.48-4.82-17.34-6.09-21.64-12.53-43.49-16.85-55.21-5.84-15.86-18.71-44.65-31.43-72.2h0c-16.62-36-33-69.86-33-69.86,3.11-.12,10.33-3.79,19.67-8.15,19.29-9,47.56-21,66.89-10.59,5.42,20.31,25.22,76.2,35.33,114.81,8.81,33.61,13.27,65.08,16.27,91.77.67,6,1.27,11.71,1.83,17.17.63,6.13,1.21,11.94,1.77,17.35.66,6.19,1.29,11.87,2,17,.22,1.59.44,3.13.67,4.62A23.89,23.89,0,0,1,2251.42,1309.51Z" transform="translate(-1561.23 -484.95)"/><path class="cls-5" d="M2156.89,1238.57c-.64,5.87-1.29,11.66-1.93,17.17-.74,6.29-1.45,12.2-2.11,17.49-.86,7-1.63,13-2.16,17.11s-.85,6.36-.85,6.36a26.54,26.54,0,0,1-19.9,24l-4.8,1.2c-11.35,2.82-22.48-5.7-23.06-17.64,0,0-.39-4.42-1.08-12.17-.41-4.74-.94-10.73-1.56-17.72-.47-5.31-1-11.19-1.54-17.53-.49-5.62-1-11.6-1.57-17.86-1.66-18.84-3.53-40.26-5.44-62.11-2.52-28.9-10.17-58.61-18.43-84.21-12.94-40.06-18.61-99.17,23.48-99.62,3,0,40.23,17.78,41.22,18.25,0,0,1.51,7.85,3.79,20.22,3.54,19.24,8.92,49.42,13.3,78h0c3.84,25.07,6.92,48.92,7.31,63.11S2159.59,1213.48,2156.89,1238.57Z" transform="translate(-1561.23 -484.95)"/><path class="cls-6" d="M2221.57,1062.48s-76,22.91-167.87,10.66c0,0-1.16-6.25-2.54-16.6-.68-5.08-1.4-11.15-2.07-18-4.45-45.68-6-124.46,29.64-159.54,13.37-13.14,38.43-16.69,44.85-17.32,2.34-.22,4.63-.36,6.89-.45l1.51,0h.23c.58,0,1.13,0,1.69,0h.85l2.4,0c40.74.82,57.59,23.32,58.76,64.06.9,31.09,10.61,74.56,18.22,106.24,1.42,5.9,2.76,11.4,3.95,16.33C2219.48,1053.57,2220.68,1058.54,2221.57,1062.48Z" transform="translate(-1561.23 -484.95)"/><path class="cls-7" d="M2116.49,868.08c-2.72-3.8.92-4.3,1.89-8.31l3-12.39.88-3.61,5.15-21.22,2.14,20.65,1.28,12.4.4,3.92c.28,2.67,1,3,3.16,5.2.86.89,4.09,4.5.27,6.57C2131.24,873.14,2120,872.91,2116.49,868.08Z" transform="translate(-1561.23 -484.95)"/><path class="cls-4" d="M2119.9,845.89s-20.71.52-21.77-24.49c-.65-15.47,19.23,12.87,19.23,12.87l1.18,7.89Z" transform="translate(-1561.23 -484.95)"/><path class="cls-4" d="M2121.31,847c0,.11.05.22.08.34,1.67,6.48,9.41,8.26,9.41,8.26l0,0-1.28-12.4c-2.34-.39-5.62-.64-7.29.57A2.88,2.88,0,0,0,2121.31,847Z" transform="translate(-1561.23 -484.95)"/><ellipse class="cls-7" cx="2129.18" cy="828" rx="18.28" ry="22.04" transform="translate(-1673.62 -97.79) rotate(-10.12)"/><path class="cls-7" d="M2111.3,832.76a3.58,3.58,0,1,0-1.68-5.06A3.79,3.79,0,0,0,2111.3,832.76Z" transform="translate(-1561.23 -484.95)"/><path class="cls-11" d="M2132.57,826.91a.37.37,0,0,0,.16-.29.38.38,0,0,0-.36-.38,4,4,0,0,0-4.15,2.63.36.36,0,0,0,.19.48c.18.09.36,0,.49-.18a6.3,6.3,0,0,1,3.44-2.19A.35.35,0,0,0,2132.57,826.91Z" transform="translate(-1561.23 -484.95)"/><path class="cls-11" d="M2131.18,831.74c.28.84,1,1.36,1.6,1.16a1.42,1.42,0,0,0,.61-1.88c-.27-.84-1-1.36-1.59-1.16A1.44,1.44,0,0,0,2131.18,831.74Z" transform="translate(-1561.23 -484.95)"/><path class="cls-11" d="M2146.21,825.18a.26.26,0,0,0,.19-.19.44.44,0,0,0-.17-.49,2.58,2.58,0,0,0-3.75.6.44.44,0,0,0,0,.52.27.27,0,0,0,.41,0,3.89,3.89,0,0,1,3.12-.5A.2.2,0,0,0,2146.21,825.18Z" transform="translate(-1561.23 -484.95)"/><path class="cls-11" d="M2143,829.13c-.07.88.39,1.64,1,1.69s1.22-.62,1.29-1.51-.4-1.63-1-1.68S2143.08,828.25,2143,829.13Z" transform="translate(-1561.23 -484.95)"/><path class="cls-8" d="M2133.51,843.31a10.39,10.39,0,0,0,6.16-2.32.25.25,0,0,0,0-.36.27.27,0,0,0-.37,0c-.2.18-4.91,4.21-9.91.93a.26.26,0,0,0-.36.08.26.26,0,0,0,.08.35A7.84,7.84,0,0,0,2133.51,843.31Z" transform="translate(-1561.23 -484.95)"/><path class="cls-8" d="M2129,843h0a.27.27,0,0,0,.22-.3,2.92,2.92,0,0,1,.64-2l0-.07a.26.26,0,0,0-.1-.35.25.25,0,0,0-.35.1,3.52,3.52,0,0,0-.76,2.38A.26.26,0,0,0,2129,843Z" transform="translate(-1561.23 -484.95)"/><path class="cls-4" d="M2268,915.44h0a8.86,8.86,0,0,1-7-10.36l4.48-23a8.86,8.86,0,0,1,10.36-7h0a8.85,8.85,0,0,1,7,10.35l-4.48,23A8.87,8.87,0,0,1,2268,915.44Z" transform="translate(-1561.23 -484.95)"/><path class="cls-5" d="M2246.47,903.51h21.91a20.76,20.76,0,0,1,20.76,20.76v92.58a20.77,20.77,0,0,1-20.77,20.77h-21.91a20.77,20.77,0,0,1-20.77-20.77V924.27a20.77,20.77,0,0,1,20.77-20.77Z" transform="translate(-1334.23 -898.33) rotate(11.01)"/><path class="cls-4" d="M2357.77,865.77l-77,20.94-1.45,7.45,71.38,42c4.46,2.63,10.28.38,10.72-4.14l5.83-59.58C2367.65,868,2362.6,864.46,2357.77,865.77Z" transform="translate(-1561.23 -484.95)"/><rect class="cls-14" x="2245.54" y="935.86" width="26.58" height="55.55" transform="translate(-1335.54 -898.72) rotate(11.01)"/><path class="cls-7" d="M2268.64,910.57a84.15,84.15,0,0,1-19.44-.76s-8.35-23.49-6.7-25.37c3.8-4.33,13.22-11.18,17.11-15.45,1.68-1.84,7.77-7.67,9.83-6.23,1.78,1.25-.86,8.19-2.52,11.34,16.07-3.63,41.15-1.69,8,8.36l0,.06c3.44-.71,13.26-1,12.4,4-.76,4.39-5,4.18-10.67,5.4l0,.16c5.85-.74,11.24,1.45,9.17,5.39-2.59,5-8.62,5.4-8.62,5.4s8.49-.34,7.41,2.79c-1.45,4.19-8.28,4.13-13.84,4.9A8.69,8.69,0,0,1,2268.64,910.57Z" transform="translate(-1561.23 -484.95)"/><path class="cls-6" d="M2247.61,879.59s15.14,23.61,2.48,35.09c-12,10.85-88,25.91-141.83,12.85-2.54-.62-5-1.63-6.33-3.85a38.63,38.63,0,0,1-5.53-16.76,90.87,90.87,0,0,1-.16-16.44,4.78,4.78,0,0,1,5-4.34C2120.14,887.29,2180.32,896.43,2247.61,879.59Z" transform="translate(-1561.23 -484.95)"/><path class="cls-9" d="M2156.89,1238.57c-.64,5.87-1.29,11.66-1.93,17.17-16.86,1-36.24,1.55-57.06,1.06-.49-5.62-1-11.6-1.57-17.86C2114,1239.47,2135,1239.58,2156.89,1238.57Z" transform="translate(-1561.23 -484.95)"/><path class="cls-9" d="M2152.85,1273.23c-.86,7-1.63,13-2.16,17.11-14.61,1-31.45,1.73-49.69,1.71-.41-4.74-.94-10.73-1.56-17.72C2115.84,1274.55,2134.14,1274.32,2152.85,1273.23Z" transform="translate(-1561.23 -484.95)"/><path class="cls-9" d="M2261.27,1244.63c-16.07,3.51-34.32,6.93-53.92,9.61-1.54-5.63-3.17-11.48-4.82-17.34,16.55-2.18,36.29-5.23,56.91-9.44C2260.11,1233.43,2260.71,1239.17,2261.27,1244.63Z" transform="translate(-1561.23 -484.95)"/><path class="cls-9" d="M2265,1279c-14.28,3.32-30.66,6.67-48.42,9.52-1.22-4.58-2.8-10.5-4.63-17.24,15.65-2.33,33.16-5.37,51.05-9.29C2263.7,1268.17,2264.33,1273.85,2265,1279Z" transform="translate(-1561.23 -484.95)"/><path class="cls-4" d="M2154.25,1110h.08a.52.52,0,0,0,.43-.59c-2-13.48,3.3-25.7,3.35-25.82a.52.52,0,0,0-.26-.69.54.54,0,0,0-.69.27c0,.12-5.47,12.61-3.42,26.39A.51.51,0,0,0,2154.25,1110Z" transform="translate(-1561.23 -484.95)"/><path class="cls-4" d="M2154.23,934.77c15,0,30.49-1.06,42-4.36a.52.52,0,0,0,.36-.65.54.54,0,0,0-.65-.36c-18.41,5.28-47,4.78-67.75,3.42-23.87-1.56-42.3-4.53-43.36-5.06a.52.52,0,0,0-.7.23.53.53,0,0,0,.24.7c1.58.79,21.54,3.72,43.76,5.17C2136,934.37,2145.06,934.77,2154.23,934.77Z" transform="translate(-1561.23 -484.95)"/><path class="cls-4" d="M2181.64,889.54c2.53,0,4.79-.08,6.69-.27a.52.52,0,1,0-.1-1c-19.94,1.9-80.51-7.25-81.12-7.34a.52.52,0,1,0-.15,1C2107.51,882,2157.33,889.54,2181.64,889.54Z" transform="translate(-1561.23 -484.95)"/><path class="cls-9" d="M2218.08,1047.85c-1.24.12-2.51.24-3.8.38-19.28,1.91-43.62,4-71.34,5.58-10,.57-20.39,1.08-31.16,1.5-16.41.65-33.65,1.08-51.46,1.19q-4.56,0-9.16,0c-.68-5.08-1.4-11.15-2.07-18,9,0,18.92-.07,29.51-.22,0,0,0,0,0,0s0,0,0,0c9-.12,18.54-.32,28.43-.59l6.82-.21h.05c30.42-1,64-2.7,97.39-5.79l2.8-.26C2215.55,1037.42,2216.89,1042.92,2218.08,1047.85Z" transform="translate(-1561.23 -484.95)"/><path class="cls-6" d="M2094.4,826.92s1.33-34.8,24.75-42S2147,809.76,2147,809.76s17.15-.38,13.94,5.84S2094.4,826.92,2094.4,826.92Z" transform="translate(-1561.23 -484.95)"/><path class="cls-6" d="M2125.71,823.68s-9.79-.18-9.43,8.17.32,20.66-10.81,17-11.07-21.92-11.07-21.92Z" transform="translate(-1561.23 -484.95)"/><path class="cls-4" d="M2210.67,1017.38h.12a.52.52,0,0,0,.39-.62c0-.13-.15-.61-.35-1.4-8.77-34.19-13.06-56.76-12.09-63.54a.52.52,0,0,0-1-.15c-1.34,9.33,7,44.07,12.11,64,.2.77.32,1.25.35,1.37A.51.51,0,0,0,2210.67,1017.38Z" transform="translate(-1561.23 -484.95)"/><path class="cls-4" d="M2171.37,1073h.1a.52.52,0,0,0,.41-.61c-.07-.37-1.92-9.22-14-16.31-4-2.37-3.36-13.69-2.71-24.63.52-8.61,1-17.51-.68-22.58-3.44-10.09-2.9-22.22,1.7-38.17,4-13.81-4.42-28-4.5-28.18a.52.52,0,0,0-.72-.18.53.53,0,0,0-.17.72c.08.13,8.25,14,4.39,27.35-4.66,16.17-5.19,28.5-1.69,38.79,1.67,4.88,1.14,13.68.63,22.19-.7,11.77-1.36,22.89,3.23,25.59,11.62,6.83,13.46,15.52,13.48,15.61A.52.52,0,0,0,2171.37,1073Z" transform="translate(-1561.23 -484.95)"/><path class="cls-6" d="M2111.44,863.72s2.92-8.07,5.13-6.82,6.69,6.62,8.46,7.84,3.26,8.17,4.28,7,1.69-6.74,1.53-7.39c-1-3.94,2.47-6.85,4.79-6s4.2,8.06,2.87,11.16-9.77,7-12.51,6.51-9.57-3.41-10-3.64S2111.44,863.72,2111.44,863.72Z" transform="translate(-1561.23 -484.95)"/><path class="cls-7" d="M2266.54,1048.28s10.6.31,10.81-9.37c.26-12.32-11.17-24.29-11.45-16.48a44.43,44.43,0,0,0,1.71,13.19s-4.7-19.58-9.53-16.66-.6,18.91-.6,18.91-5.31-20.78-9-16.55-1.59,20.64-1.59,20.64-2.94-21.42-7.1-16.4-1.69,14.28-.4,19.78c1.21,5.2,5,6.1,9.88,4.57,0,0,5.79,1.33,8.76-.48,1.13-.7,2.63.19,3.56.08A32.23,32.23,0,0,0,2266.54,1048.28Z" transform="translate(-1561.23 -484.95)"/><path class="cls-13" d="M2239.41,1045.69h.08a.35.35,0,0,0,.26-.42l-.2-.83c-1.31-5.58-3.3-14,.54-18.64.63-.77,1-.65,1.19-.61,2.53.72,4.67,12.39,5.28,16.83a.36.36,0,0,0,.71-.09c0-.16-2-16.3,1.49-20.36.42-.49.76-.48,1-.43,2.65.63,6.13,11.94,7.33,16.58,0,.13.06.21.07.25a.35.35,0,0,0,.43.25.36.36,0,0,0,.25-.43,1,1,0,0,1,0-.12c-.37-1.46-3.87-15.78.47-18.4a1.53,1.53,0,0,1,1.45-.11c3.07,1.28,5.91,10.49,7.05,14.59.28,1.23.51,2,.52,2a.35.35,0,0,0,.43.23.36.36,0,0,0,.25-.42c0-.14-.23-.92-.55-2.09a44.29,44.29,0,0,1-1.16-11c.05-1.45.49-2.17,1.26-2.15,2.77.08,9.69,9,9.48,18.62a.36.36,0,0,0,.35.36.35.35,0,0,0,.36-.35c.21-9.83-6.86-19.24-10.17-19.33-.7,0-1.9.32-2,2.83a37.8,37.8,0,0,0,.25,5.83c-1.46-4.19-3.54-8.8-5.81-9.75a2.19,2.19,0,0,0-2.09.16c-2.82,1.7-2.76,7.39-2.14,12.15-1.55-4.62-3.75-9.87-5.86-10.37a1.66,1.66,0,0,0-1.67.65c-2.13,2.46-2.4,8.71-2.22,13.74-1-4.58-2.55-9.76-4.53-10.33a1.83,1.83,0,0,0-1.94.84c-4.06,4.9-2,13.54-.67,19.25l.19.83A.36.36,0,0,0,2239.41,1045.69Z" transform="translate(-1561.23 -484.95)"/></svg>