<svg width="142" height="42" viewBox="0 0 142 42" fill="none" xmlns="http://www.w3.org/2000/svg">
<path d="M1.776 24V7.2H12V8.856H3.792V14.76H10.776V16.392H3.792V24H1.776ZM15.7003 9.456C15.3003 9.456 14.9643 9.328 14.6923 9.072C14.4363 8.8 14.3083 8.464 14.3083 8.064C14.3083 7.68 14.4363 7.36 14.6923 7.104C14.9643 6.848 15.3003 6.72 15.7003 6.72C16.0843 6.72 16.4123 6.848 16.6843 7.104C16.9563 7.36 17.0923 7.68 17.0923 8.064C17.0923 8.464 16.9563 8.8 16.6843 9.072C16.4123 9.328 16.0843 9.456 15.7003 9.456ZM14.6923 24V12.096H16.7083V24H14.6923ZM20.2185 24V12.096H22.0425L22.2105 14.376C22.5785 13.592 23.1385 12.968 23.8905 12.504C24.6425 12.04 25.5705 11.808 26.6745 11.808V13.92H26.1225C25.4185 13.92 24.7705 14.048 24.1785 14.304C23.5865 14.544 23.1145 14.96 22.7625 15.552C22.4105 16.144 22.2345 16.96 22.2345 18V24H20.2185ZM33.8439 24.288C32.7079 24.288 31.6999 24.032 30.8199 23.52C29.9399 22.992 29.2439 22.264 28.7319 21.336C28.2359 20.408 27.9879 19.312 27.9879 18.048C27.9879 16.8 28.2359 15.712 28.7319 14.784C29.2279 13.84 29.9159 13.112 30.7959 12.6C31.6919 12.072 32.7239 11.808 33.8919 11.808C35.0439 11.808 36.0359 12.072 36.8679 12.6C37.7159 13.112 38.3639 13.792 38.8119 14.64C39.2599 15.488 39.4839 16.4 39.4839 17.376C39.4839 17.552 39.4759 17.728 39.4599 17.904C39.4599 18.08 39.4599 18.28 39.4599 18.504H29.9799C30.0279 19.416 30.2359 20.176 30.6039 20.784C30.9879 21.376 31.4599 21.824 32.0199 22.128C32.5959 22.432 33.2039 22.584 33.8439 22.584C34.6759 22.584 35.3719 22.392 35.9319 22.008C36.4919 21.624 36.8999 21.104 37.1559 20.448H39.1479C38.8279 21.552 38.2119 22.472 37.2999 23.208C36.4039 23.928 35.2519 24.288 33.8439 24.288ZM33.8439 13.512C32.8839 13.512 32.0279 13.808 31.2759 14.4C30.5399 14.976 30.1159 15.824 30.0039 16.944H37.4919C37.4439 15.872 37.0759 15.032 36.3879 14.424C35.6999 13.816 34.8519 13.512 33.8439 13.512Z" fill="#212529"/>
<path d="M42.632 24V7.2H45.704V14.184H53.24V7.2H56.312V24H53.24V16.68H45.704V24H42.632ZM60.9933 29.28L63.7533 23.208H63.0333L58.4013 12.096H61.7373L65.0733 20.472L68.5533 12.096H71.8173L64.2573 29.28H60.9933ZM78.2664 24.288C77.1464 24.288 76.1464 24.016 75.2664 23.472C74.3864 22.928 73.6904 22.184 73.1784 21.24C72.6664 20.296 72.4104 19.224 72.4104 18.024C72.4104 16.824 72.6664 15.76 73.1784 14.832C73.6904 13.888 74.3864 13.152 75.2664 12.624C76.1464 12.08 77.1464 11.808 78.2664 11.808C79.1624 11.808 79.9464 11.976 80.6184 12.312C81.2904 12.648 81.8344 13.12 82.2504 13.728V6.72H85.3224V24H82.5864L82.2504 22.296C81.8664 22.824 81.3544 23.288 80.7144 23.688C80.0904 24.088 79.2744 24.288 78.2664 24.288ZM78.9144 21.6C79.9064 21.6 80.7144 21.272 81.3384 20.616C81.9784 19.944 82.2984 19.088 82.2984 18.048C82.2984 17.008 81.9784 16.16 81.3384 15.504C80.7144 14.832 79.9064 14.496 78.9144 14.496C77.9384 14.496 77.1304 14.824 76.4904 15.48C75.8504 16.136 75.5304 16.984 75.5304 18.024C75.5304 19.064 75.8504 19.92 76.4904 20.592C77.1304 21.264 77.9384 21.6 78.9144 21.6ZM88.4506 24V12.096H91.1866L91.4746 14.328C91.9066 13.56 92.4906 12.952 93.2266 12.504C93.9786 12.04 94.8586 11.808 95.8666 11.808V15.048H95.0026C94.3306 15.048 93.7306 15.152 93.2026 15.36C92.6746 15.568 92.2586 15.928 91.9546 16.44C91.6666 16.952 91.5226 17.664 91.5226 18.576V24H88.4506ZM102.07 24.288C101.046 24.288 100.206 24.128 99.5503 23.808C98.8943 23.472 98.4063 23.032 98.0863 22.488C97.7663 21.944 97.6063 21.344 97.6063 20.688C97.6063 19.584 98.0383 18.688 98.9023 18C99.7663 17.312 101.062 16.968 102.79 16.968H105.814V16.68C105.814 15.864 105.582 15.264 105.118 14.88C104.654 14.496 104.078 14.304 103.39 14.304C102.766 14.304 102.222 14.456 101.758 14.76C101.294 15.048 101.006 15.48 100.894 16.056H97.8943C97.9743 15.192 98.2623 14.44 98.7583 13.8C99.2703 13.16 99.9263 12.672 100.726 12.336C101.526 11.984 102.422 11.808 103.414 11.808C105.11 11.808 106.446 12.232 107.422 13.08C108.398 13.928 108.886 15.128 108.886 16.68V24H106.27L105.982 22.08C105.63 22.72 105.134 23.248 104.494 23.664C103.87 24.08 103.062 24.288 102.07 24.288ZM102.766 21.888C103.646 21.888 104.326 21.6 104.806 21.024C105.302 20.448 105.614 19.736 105.742 18.888H103.126C102.31 18.888 101.726 19.04 101.374 19.344C101.022 19.632 100.846 19.992 100.846 20.424C100.846 20.888 101.022 21.248 101.374 21.504C101.726 21.76 102.19 21.888 102.766 21.888ZM111.818 24V12.096H114.53L114.77 14.112C115.138 13.408 115.666 12.848 116.354 12.432C117.058 12.016 117.882 11.808 118.826 11.808C120.298 11.808 121.442 12.272 122.258 13.2C123.074 14.128 123.482 15.488 123.482 17.28V24H120.41V17.568C120.41 16.544 120.202 15.76 119.786 15.216C119.37 14.672 118.722 14.4 117.842 14.4C116.978 14.4 116.266 14.704 115.706 15.312C115.162 15.92 114.89 16.768 114.89 17.856V24H111.818ZM131.723 24C130.475 24 129.475 23.696 128.723 23.088C127.971 22.48 127.595 21.4 127.595 19.848V14.664H125.555V12.096H127.595L127.955 8.904H130.667V12.096H133.883V14.664H130.667V19.872C130.667 20.448 130.787 20.848 131.027 21.072C131.283 21.28 131.715 21.384 132.323 21.384H133.811V24H131.723Z" fill="#E66100"/>
</svg>
